<svg width="310" height="310" viewBox="0 0 310 310" fill="none" xmlns="http://www.w3.org/2000/svg">
<g id="Frame 1">
<g id="Group 10">
<g id="Exclude" filter="url(#filter0_d_110_235)">
<path fill-rule="evenodd" clip-rule="evenodd" d="M124.531 94.0625H91.7188V111.641H109.297C110.469 111.641 111.641 112.812 111.641 115.156V193.672C111.641 196.016 110.469 197.188 108.125 197.188H92.8906V215.938H124.531V241.719H142.109V215.938H151.484V241.719H169.062V215.938H178.438C206.562 215.938 217.109 193.672 217.109 177.266C217.109 160.859 206.654 149.665 193.672 149.141C203.047 149.141 208.906 135.078 208.906 124.531C208.906 113.984 207.734 94.0625 167.891 94.0625V68.2812H151.484V94.0625H140.938V68.2812H124.531V94.0625ZM140.938 144.453V112.812H157.344C167.891 112.812 176.094 113.984 176.094 128.047C176.094 142.109 169.062 144.453 157.344 144.453H140.938ZM140.938 162.032V196.017H159.688C174.922 196.017 184.297 193.672 184.297 178.438C184.297 163.203 174.922 162.032 159.688 162.032H140.938Z" fill="#666666"/>
<path d="M91.7188 94.0625V93.5625C91.4426 93.5625 91.2188 93.7864 91.2188 94.0625H91.7188ZM124.531 94.0625V94.5625C124.807 94.5625 125.031 94.3386 125.031 94.0625H124.531ZM91.7188 111.641H91.2188C91.2188 111.917 91.4426 112.141 91.7188 112.141V111.641ZM92.8906 197.188V196.688C92.6145 196.688 92.3906 196.911 92.3906 197.188H92.8906ZM92.8906 215.938H92.3906C92.3906 216.214 92.6145 216.438 92.8906 216.438V215.938ZM124.531 215.938H125.031C125.031 215.661 124.807 215.438 124.531 215.438V215.938ZM124.531 241.719H124.031C124.031 241.995 124.255 242.219 124.531 242.219V241.719ZM142.109 241.719V242.219C142.386 242.219 142.609 241.995 142.609 241.719H142.109ZM142.109 215.938V215.438C141.833 215.438 141.609 215.661 141.609 215.938H142.109ZM151.484 215.938H151.984C151.984 215.661 151.761 215.438 151.484 215.438V215.938ZM151.484 241.719H150.984C150.984 241.995 151.208 242.219 151.484 242.219V241.719ZM169.062 241.719V242.219C169.339 242.219 169.562 241.995 169.562 241.719H169.062ZM169.062 215.938V215.438C168.786 215.438 168.562 215.661 168.562 215.938H169.062ZM193.672 149.141V148.641C193.4 148.641 193.177 148.858 193.172 149.131C193.166 149.403 193.38 149.629 193.652 149.64L193.672 149.141ZM167.891 94.0625H167.391C167.391 94.3386 167.614 94.5625 167.891 94.5625V94.0625ZM167.891 68.2812H168.391C168.391 68.0051 168.167 67.7812 167.891 67.7812V68.2812ZM151.484 68.2812V67.7812C151.208 67.7812 150.984 68.0051 150.984 68.2812H151.484ZM151.484 94.0625V94.5625C151.761 94.5625 151.984 94.3386 151.984 94.0625H151.484ZM140.938 94.0625H140.438C140.438 94.3386 140.661 94.5625 140.938 94.5625V94.0625ZM140.938 68.2812H141.438C141.438 68.0051 141.214 67.7812 140.938 67.7812V68.2812ZM124.531 68.2812V67.7812C124.255 67.7812 124.031 68.0051 124.031 68.2812H124.531ZM140.938 112.812V112.312C140.661 112.312 140.438 112.536 140.438 112.812H140.938ZM140.938 144.453H140.438C140.438 144.729 140.661 144.953 140.938 144.953V144.453ZM140.938 196.017H140.438C140.438 196.293 140.661 196.517 140.938 196.517V196.017ZM140.938 162.032V161.532C140.661 161.532 140.438 161.756 140.438 162.032H140.938ZM91.7188 94.5625H124.531V93.5625H91.7188V94.5625ZM92.2188 111.641V94.0625H91.2188V111.641H92.2188ZM109.297 111.141H91.7188V112.141H109.297V111.141ZM112.141 115.156C112.141 112.679 110.869 111.141 109.297 111.141V112.141C110.069 112.141 111.141 112.946 111.141 115.156H112.141ZM112.141 193.672V115.156H111.141V193.672H112.141ZM108.125 197.688C109.374 197.688 110.402 197.375 111.115 196.662C111.828 195.949 112.141 194.921 112.141 193.672H111.141C111.141 194.767 110.867 195.496 110.408 195.955C109.949 196.414 109.22 196.688 108.125 196.688V197.688ZM92.8906 197.688H108.125V196.688H92.8906V197.688ZM93.3906 215.938V197.188H92.3906V215.938H93.3906ZM124.531 215.438H92.8906V216.438H124.531V215.438ZM125.031 241.719V215.938H124.031V241.719H125.031ZM142.109 241.219H124.531V242.219H142.109V241.219ZM141.609 215.938V241.719H142.609V215.938H141.609ZM151.484 215.438H142.109V216.438H151.484V215.438ZM151.984 241.719V215.938H150.984V241.719H151.984ZM169.062 241.219H151.484V242.219H169.062V241.219ZM168.562 215.938V241.719H169.562V215.938H168.562ZM178.438 215.438H169.062V216.438H178.438V215.438ZM216.609 177.266C216.609 185.373 214.001 194.925 207.931 202.44C201.875 209.938 192.351 215.438 178.438 215.438V216.438C192.649 216.438 202.461 210.805 208.709 203.068C214.944 195.348 217.609 185.564 217.609 177.266H216.609ZM193.652 149.64C206.317 150.152 216.609 161.077 216.609 177.266H217.609C217.609 160.642 206.99 149.178 193.692 148.641L193.652 149.64ZM208.406 124.531C208.406 129.725 206.96 135.795 204.366 140.552C201.761 145.327 198.084 148.641 193.672 148.641V149.641C198.635 149.641 202.575 145.923 205.244 141.03C207.922 136.119 209.406 129.884 209.406 124.531H208.406ZM167.891 94.5625C187.741 94.5625 197.818 99.5255 202.956 105.663C208.105 111.813 208.406 119.264 208.406 124.531H209.406C209.406 119.252 209.121 111.469 203.723 105.021C198.315 98.5604 187.884 93.5625 167.891 93.5625V94.5625ZM167.391 68.2812V94.0625H168.391V68.2812H167.391ZM151.484 68.7812H167.891V67.7812H151.484V68.7812ZM151.984 94.0625V68.2812H150.984V94.0625H151.984ZM140.938 94.5625H151.484V93.5625H140.938V94.5625ZM140.438 68.2812V94.0625H141.438V68.2812H140.438ZM124.531 68.7812H140.938V67.7812H124.531V68.7812ZM125.031 94.0625V68.2812H124.031V94.0625H125.031ZM140.438 112.812V144.453H141.438V112.812H140.438ZM157.344 112.312H140.938V113.312H157.344V112.312ZM176.594 128.047C176.594 120.917 174.507 116.904 170.934 114.729C167.428 112.595 162.6 112.312 157.344 112.312V113.312C162.634 113.312 167.181 113.616 170.414 115.583C173.579 117.51 175.594 121.115 175.594 128.047H176.594ZM157.344 144.953C163.203 144.953 168.042 144.376 171.407 141.928C174.816 139.449 176.594 135.152 176.594 128.047H175.594C175.594 135.005 173.856 138.911 170.819 141.119C167.739 143.359 163.203 143.953 157.344 143.953V144.953ZM140.938 144.953H157.344V143.953H140.938V144.953ZM141.438 196.017V162.032H140.438V196.017H141.438ZM159.688 195.517H140.938V196.517H159.688V195.517ZM183.797 178.438C183.797 185.942 181.499 190.136 177.452 192.509C173.335 194.923 167.312 195.517 159.688 195.517V196.517C167.298 196.517 173.579 195.938 177.958 193.371C182.408 190.763 184.797 186.168 184.797 178.438H183.797ZM159.688 162.532C163.494 162.532 166.912 162.606 169.903 162.95C172.895 163.295 175.427 163.907 177.475 164.966C179.512 166.019 181.08 167.52 182.146 169.669C183.218 171.83 183.797 174.676 183.797 178.438H184.797C184.797 174.582 184.204 171.569 183.042 169.225C181.874 166.871 180.146 165.222 177.935 164.078C175.735 162.94 173.067 162.308 170.017 161.957C166.965 161.605 163.498 161.532 159.688 161.532V162.532ZM140.938 162.532H159.688V161.532H140.938V162.532Z" fill="#666666"/>
</g>
<g id="Exclude_2">
<mask id="path-3-inside-1_110_235" fill="white">
<path fill-rule="evenodd" clip-rule="evenodd" d="M155 305C237.843 305 305 237.843 305 155C305 72.1573 237.843 5 155 5C72.1573 5 5 72.1573 5 155C5 237.843 72.1573 305 155 305ZM155 281.562C224.899 281.562 281.562 224.899 281.562 155C281.562 85.1015 224.899 28.4375 155 28.4375C85.1015 28.4375 28.4375 85.1015 28.4375 155C28.4375 224.899 85.1015 281.562 155 281.562Z"/>
</mask>
<g filter="url(#filter1_i_110_235)">
<path fill-rule="evenodd" clip-rule="evenodd" d="M155 305C237.843 305 305 237.843 305 155C305 72.1573 237.843 5 155 5C72.1573 5 5 72.1573 5 155C5 237.843 72.1573 305 155 305ZM155 281.562C224.899 281.562 281.562 224.899 281.562 155C281.562 85.1015 224.899 28.4375 155 28.4375C85.1015 28.4375 28.4375 85.1015 28.4375 155C28.4375 224.899 85.1015 281.562 155 281.562Z" fill="#666666"/>
</g>
<path d="M304 155C304 237.29 237.29 304 155 304V306C238.395 306 306 238.395 306 155H304ZM155 6C237.29 6 304 72.7096 304 155H306C306 71.605 238.395 4 155 4V6ZM6 155C6 72.7096 72.7096 6 155 6V4C71.605 4 4 71.605 4 155H6ZM155 304C72.7096 304 6 237.29 6 155H4C4 238.395 71.605 306 155 306V304ZM280.562 155C280.562 224.346 224.346 280.562 155 280.562V282.562C225.451 282.562 282.562 225.451 282.562 155H280.562ZM155 29.4375C224.346 29.4375 280.562 85.6537 280.562 155H282.562C282.562 84.5492 225.451 27.4375 155 27.4375V29.4375ZM29.4375 155C29.4375 85.6537 85.6537 29.4375 155 29.4375V27.4375C84.5492 27.4375 27.4375 84.5492 27.4375 155H29.4375ZM155 280.562C85.6537 280.562 29.4375 224.346 29.4375 155H27.4375C27.4375 225.451 84.5492 282.562 155 282.562V280.562Z" fill="#666666" mask="url(#path-3-inside-1_110_235)"/>
</g>
</g>
</g>
<defs>
<filter id="filter0_d_110_235" x="87.2188" y="67.7812" width="134.391" height="182.438" filterUnits="userSpaceOnUse" color-interpolation-filters="sRGB">
<feFlood flood-opacity="0" result="BackgroundImageFix"/>
<feColorMatrix in="SourceAlpha" type="matrix" values="0 0 0 0 0 0 0 0 0 0 0 0 0 0 0 0 0 0 127 0" result="hardAlpha"/>
<feOffset dy="4"/>
<feGaussianBlur stdDeviation="2"/>
<feComposite in2="hardAlpha" operator="out"/>
<feColorMatrix type="matrix" values="0 0 0 0 0 0 0 0 0 0 0 0 0 0 0 0 0 0 0.25 0"/>
<feBlend mode="normal" in2="BackgroundImageFix" result="effect1_dropShadow_110_235"/>
<feBlend mode="normal" in="SourceGraphic" in2="effect1_dropShadow_110_235" result="shape"/>
</filter>
<filter id="filter1_i_110_235" x="5" y="5" width="300" height="304" filterUnits="userSpaceOnUse" color-interpolation-filters="sRGB">
<feFlood flood-opacity="0" result="BackgroundImageFix"/>
<feBlend mode="normal" in="SourceGraphic" in2="BackgroundImageFix" result="shape"/>
<feColorMatrix in="SourceAlpha" type="matrix" values="0 0 0 0 0 0 0 0 0 0 0 0 0 0 0 0 0 0 127 0" result="hardAlpha"/>
<feOffset dy="4"/>
<feGaussianBlur stdDeviation="3"/>
<feComposite in2="hardAlpha" operator="arithmetic" k2="-1" k3="1"/>
<feColorMatrix type="matrix" values="0 0 0 0 0 0 0 0 0 0 0 0 0 0 0 0 0 0 0.25 0"/>
<feBlend mode="normal" in2="shape" result="effect1_innerShadow_110_235"/>
</filter>
</defs>
</svg>
