<svg width="150" height="120" viewBox="0 0 517 451" fill="none" xmlns="http://www.w3.org/2000/svg">
    <g id="DiamondSVG">
        <path id="Diamond"
            d="M5.12961 105.372L89.5022 4.58111C91.4023 2.31137 94.2102 1 97.1702 1H419.83C422.79 1 425.598 2.31136 427.498 4.5811L511.87 105.372C514.87 108.956 514.988 114.139 512.154 117.855L266.452 440.072C262.45 445.32 254.55 445.32 250.548 440.072L4.84569 117.855C2.01207 114.139 2.12995 108.956 5.12961 105.372Z"
            fill="#D9D9D9" stroke="black" />
        <path id="upper-right"
            d="M484.865 103H377.751C376.977 103 376.496 102.159 376.889 101.492L421.279 26.2225C421.63 25.6268 422.466 25.559 422.909 26.0903L485.633 101.36C486.176 102.011 485.713 103 484.865 103Z"
            fill="#D9D9D9" stroke="black" />
        <path id="upper-center"
            d="M259.207 22.7071L337.793 101.293C338.423 101.923 337.977 103 337.086 103H179.914C179.023 103 178.577 101.923 179.207 101.293L257.793 22.7071C258.183 22.3166 258.817 22.3166 259.207 22.7071Z"
            fill="#D9D9D9" stroke="black" />
        <path id="upper-middle-right"
            d="M404.613 20.0073L359.653 96.3902C359.322 96.9528 358.55 97.0524 358.087 96.5923L281.22 20.2093C280.587 19.5803 281.033 18.5 281.925 18.5H403.751C404.525 18.5 405.005 19.3406 404.613 20.0073Z"
            fill="#D9D9D9" stroke="black" />
        <path id="upper-middle-left"
            d="M158.916 97.0838L235.793 20.2071C236.423 19.5771 235.977 18.5 235.086 18.5H113.243C112.471 18.5 111.99 19.3382 112.38 20.0049L157.346 96.8816C157.677 97.4472 158.453 97.5471 158.916 97.0838Z"
            fill="#D9D9D9" stroke="black" />
        <path id="upper-left"
            d="M95.721 26.2225L140.111 101.492C140.504 102.159 140.023 103 139.249 103H32.135C31.2872 103 30.824 102.011 31.3668 101.36L94.0914 26.0903C94.5341 25.559 95.3696 25.6268 95.721 26.2225Z"
            fill="#D9D9D9" stroke="black" />
        <path id="down-left"
            d="M232.02 387.422L30.7202 122.605C30.2197 121.947 30.6892 121 31.5163 121H149.267C149.703 121 150.089 121.283 150.221 121.699L233.77 386.516C234.107 387.585 232.699 388.315 232.02 387.422Z"
            fill="#D9D9D9" stroke="black" />
        <path id="down-center"
            d="M348.134 121H168.866C168.19 121 167.708 121.658 167.913 122.302L257.547 404.994C257.842 405.924 259.158 405.924 259.453 404.994L349.087 122.302C349.292 121.657 348.81 121 348.134 121Z"
            fill="#D9D9D9" stroke="black" />
        <path id="down-right"
            d="M486.478 121H367.234C366.797 121 366.411 121.284 366.28 121.701L283.201 386.578C282.866 387.645 284.27 388.373 284.95 387.484L487.273 122.607C487.775 121.949 487.306 121 486.478 121Z"
            fill="#D9D9D9" stroke="black" />
    </g>
</svg>