<svg xmlns="http://www.w3.org/2000/svg" version="1.1" xmlns:xlink="http://www.w3.org/1999/xlink" xmlns:svgjs="http://svgjs.com/svgjs" width="1440" height="560" preserveAspectRatio="none" viewBox="0 0 1440 560"><g mask="url(&quot;#SvgjsMask1039&quot;)" fill="none"><rect width="1440" height="560" x="0" y="0" fill="rgba(0, 0, 0, 1)"></rect><path d="M46 120L-114 280" stroke-width="6" stroke="url(#SvgjsLinearGradient1040)" stroke-linecap="round" class="BottomLeft"></path><path d="M148 522L436 234" stroke-width="8" stroke="url(#SvgjsLinearGradient1041)" stroke-linecap="round" class="TopRight"></path><path d="M1039 547L1212 374" stroke-width="6" stroke="url(#SvgjsLinearGradient1040)" stroke-linecap="round" class="BottomLeft"></path><path d="M1212 43L1577 -322" stroke-width="8" stroke="url(#SvgjsLinearGradient1040)" stroke-linecap="round" class="BottomLeft"></path><path d="M262 290L-61 613" stroke-width="10" stroke="url(#SvgjsLinearGradient1041)" stroke-linecap="round" class="TopRight"></path><path d="M1196 217L1596 -183" stroke-width="6" stroke="url(#SvgjsLinearGradient1040)" stroke-linecap="round" class="BottomLeft"></path><path d="M711 78L459 330" stroke-width="8" stroke="url(#SvgjsLinearGradient1040)" stroke-linecap="round" class="BottomLeft"></path><path d="M1328 172L937 563" stroke-width="10" stroke="url(#SvgjsLinearGradient1040)" stroke-linecap="round" class="BottomLeft"></path><path d="M735 212L976 -29" stroke-width="8" stroke="url(#SvgjsLinearGradient1041)" stroke-linecap="round" class="TopRight"></path><path d="M211 109L56 264" stroke-width="10" stroke="url(#SvgjsLinearGradient1041)" stroke-linecap="round" class="TopRight"></path><path d="M993 282L1406 -131" stroke-width="10" stroke="url(#SvgjsLinearGradient1040)" stroke-linecap="round" class="BottomLeft"></path><path d="M542 502L274 770" stroke-width="10" stroke="url(#SvgjsLinearGradient1040)" stroke-linecap="round" class="BottomLeft"></path><path d="M1377 219L1639 -43" stroke-width="6" stroke="url(#SvgjsLinearGradient1040)" stroke-linecap="round" class="BottomLeft"></path><path d="M1305 18L1567 -244" stroke-width="8" stroke="url(#SvgjsLinearGradient1041)" stroke-linecap="round" class="TopRight"></path><path d="M837 317L1063 91" stroke-width="8" stroke="url(#SvgjsLinearGradient1040)" stroke-linecap="round" class="BottomLeft"></path><path d="M591 424L211 804" stroke-width="6" stroke="url(#SvgjsLinearGradient1041)" stroke-linecap="round" class="TopRight"></path><path d="M1047 389L1312 124" stroke-width="10" stroke="url(#SvgjsLinearGradient1041)" stroke-linecap="round" class="TopRight"></path><path d="M1111 315L1265 161" stroke-width="8" stroke="url(#SvgjsLinearGradient1041)" stroke-linecap="round" class="TopRight"></path><path d="M916 548L1129 335" stroke-width="6" stroke="url(#SvgjsLinearGradient1041)" stroke-linecap="round" class="TopRight"></path><path d="M1086 394L723 757" stroke-width="6" stroke="url(#SvgjsLinearGradient1040)" stroke-linecap="round" class="BottomLeft"></path><path d="M585 171L944 -188" stroke-width="8" stroke="url(#SvgjsLinearGradient1040)" stroke-linecap="round" class="BottomLeft"></path><path d="M1188 16L865 339" stroke-width="8" stroke="url(#SvgjsLinearGradient1041)" stroke-linecap="round" class="TopRight"></path><path d="M469 472L808 133" stroke-width="8" stroke="url(#SvgjsLinearGradient1041)" stroke-linecap="round" class="TopRight"></path><path d="M445 526L598 373" stroke-width="10" stroke="url(#SvgjsLinearGradient1041)" stroke-linecap="round" class="TopRight"></path><path d="M108 327L411 24" stroke-width="6" stroke="url(#SvgjsLinearGradient1040)" stroke-linecap="round" class="BottomLeft"></path><path d="M574 386L168 792" stroke-width="8" stroke="url(#SvgjsLinearGradient1040)" stroke-linecap="round" class="BottomLeft"></path><path d="M1369 405L1615 159" stroke-width="10" stroke="url(#SvgjsLinearGradient1040)" stroke-linecap="round" class="BottomLeft"></path><path d="M847 365L1034 178" stroke-width="6" stroke="url(#SvgjsLinearGradient1040)" stroke-linecap="round" class="BottomLeft"></path><path d="M548 529L353 724" stroke-width="6" stroke="url(#SvgjsLinearGradient1041)" stroke-linecap="round" class="TopRight"></path><path d="M1355 286L1157 484" stroke-width="10" stroke="url(#SvgjsLinearGradient1041)" stroke-linecap="round" class="TopRight"></path><path d="M357 101L136 322" stroke-width="10" stroke="url(#SvgjsLinearGradient1041)" stroke-linecap="round" class="TopRight"></path><path d="M967 327L1301 -7" stroke-width="10" stroke="url(#SvgjsLinearGradient1040)" stroke-linecap="round" class="BottomLeft"></path><path d="M316 305L606 15" stroke-width="8" stroke="url(#SvgjsLinearGradient1040)" stroke-linecap="round" class="BottomLeft"></path><path d="M347 121L-71 539" stroke-width="8" stroke="url(#SvgjsLinearGradient1041)" stroke-linecap="round" class="TopRight"></path><path d="M68 309L-273 650" stroke-width="6" stroke="url(#SvgjsLinearGradient1040)" stroke-linecap="round" class="BottomLeft"></path><path d="M137 183L554 -234" stroke-width="10" stroke="url(#SvgjsLinearGradient1041)" stroke-linecap="round" class="TopRight"></path><path d="M372 451L703 120" stroke-width="6" stroke="url(#SvgjsLinearGradient1040)" stroke-linecap="round" class="BottomLeft"></path><path d="M735 67L460 342" stroke-width="6" stroke="url(#SvgjsLinearGradient1040)" stroke-linecap="round" class="BottomLeft"></path><path d="M1328 90L1054 364" stroke-width="6" stroke="url(#SvgjsLinearGradient1041)" stroke-linecap="round" class="TopRight"></path></g><defs><mask id="SvgjsMask1039"><rect width="1440" height="560" fill="#ffffff"></rect></mask><linearGradient x1="100%" y1="0%" x2="0%" y2="100%" id="SvgjsLinearGradient1040"><stop stop-color="rgba(12, 37, 63, 0)" offset="0"></stop><stop stop-color="rgba(12, 37, 63, 1)" offset="1"></stop></linearGradient><linearGradient x1="0%" y1="100%" x2="100%" y2="0%" id="SvgjsLinearGradient1041"><stop stop-color="rgba(12, 37, 63, 0)" offset="0"></stop><stop stop-color="rgba(12, 37, 63, 1)" offset="1"></stop></linearGradient></defs></svg>