<svg id="visual" viewBox="0 0 2500 1800" width="2500" height="1800" xmlns="http://www.w3.org/2000/svg" xmlns:xlink="http://www.w3.org/1999/xlink" version="1.1"><rect x="0" y="0" width="2500" height="1800" fill="#010409"></rect><defs><linearGradient id="grad1_0" x1="28%" y1="100%" x2="100%" y2="0%"><stop offset="22.222222222222225%" stop-color="#010409" stop-opacity="1"></stop><stop offset="77.77777777777777%" stop-color="#010409" stop-opacity="1"></stop></linearGradient></defs><defs><linearGradient id="grad2_0" x1="0%" y1="100%" x2="72%" y2="0%"><stop offset="22.222222222222225%" stop-color="#010409" stop-opacity="1"></stop><stop offset="77.77777777777777%" stop-color="#010409" stop-opacity="1"></stop></linearGradient></defs><g transform="translate(2500, 1800)"><path d="M-693.1 0C-696.9 -103.7 -700.7 -207.4 -640.4 -265.2C-580 -323.1 -455.5 -335 -384 -384C-312.4 -432.9 -294 -518.8 -238.8 -576.5C-183.6 -634.2 -91.8 -663.7 0 -693.1L0 0Z" fill="#00A9E0"></path></g><g transform="translate(0, 0)"><path d="M693.1 0C677.8 93.2 662.4 186.3 617.2 255.6C571.9 324.9 496.8 370.4 437.7 437.7C378.6 505 335.5 594.2 265.2 640.4C195 686.6 97.5 689.9 0 693.1L0 0Z" fill="#00A9E0"></path></g></svg>